<svg width="200" height="200" viewBox="0 0 200 200" fill="none" xmlns="http://www.w3.org/2000/svg">
<circle cx="100" cy="100" r="100" fill="white"/>
<path d="M17.469 114.672C17.3127 115.557 16.87 116.169 16.1409 116.508C15.8023 116.534 15.5419 116.521 15.3596 116.469C15.2034 116.417 15.0341 116.352 14.8518 116.273C14.6174 116.169 14.4091 116.104 14.2268 116.078L13.7971 115.766C13.745 115.635 13.6799 115.505 13.6018 115.375C13.5237 115.245 13.4325 115.115 13.3284 114.984C13.12 114.724 12.9117 114.398 12.7034 114.008C12.5471 113.253 12.5211 112.628 12.6252 112.133C12.7294 111.612 12.8596 111.104 13.0159 110.609C13.068 110.453 13.12 110.297 13.1721 110.141C13.2242 109.958 13.2763 109.789 13.3284 109.633C12.6513 109.268 12.1435 108.747 11.8049 108.07C11.4664 107.393 11.2711 106.742 11.219 106.117C11.2971 105.622 11.4403 105.232 11.6487 104.945C11.857 104.633 12.0914 104.385 12.3518 104.203C12.6383 104.021 12.9247 103.878 13.2112 103.773C13.5237 103.669 13.8232 103.578 14.1096 103.5L14.6174 103.695C14.8518 103.93 15.0862 104.112 15.3206 104.242C15.5028 104.164 15.62 104.047 15.6721 103.891C15.7502 103.708 15.8153 103.513 15.8674 103.305C15.9456 103.07 16.0237 102.836 16.1018 102.602C16.206 102.367 16.3232 102.133 16.4534 101.898C16.4273 101.56 16.4794 101.247 16.6096 100.961C16.4273 100.831 16.232 100.753 16.0237 100.727C15.9716 100.727 15.8414 100.701 15.6331 100.648C15.3206 100.414 15.0992 100.219 14.969 100.062C14.8648 99.8802 14.7607 99.7109 14.6565 99.5547C14.5002 99.2161 14.3049 98.9427 14.0706 98.7344L13.6799 98.4609L13.8752 98.0703C13.9273 98.0182 13.9534 97.9531 13.9534 97.875C13.9534 97.7969 13.9013 97.6797 13.7971 97.5234C13.745 97.237 13.745 97.0417 13.7971 96.9375L13.8752 96.5469C14.0836 96.2604 14.1877 96.1042 14.1877 96.0781L14.5393 95.7266C15.0601 95.5964 15.568 95.4531 16.0627 95.2969C16.5836 95.1146 17.1044 94.9323 17.6252 94.75C18.12 94.5938 18.6148 94.4375 19.1096 94.2812C19.6305 94.099 20.1513 93.9427 20.6721 93.8125C20.8544 93.6823 21.0497 93.6042 21.2581 93.5781C21.4664 93.526 21.6617 93.487 21.844 93.4609C22.0002 93.4349 22.1435 93.4219 22.2737 93.4219C22.4039 93.3958 22.495 93.3438 22.5471 93.2656C22.8596 93.1615 23.2242 93.0443 23.6409 92.9141C24.2919 92.7318 25.1513 92.5365 26.219 92.3281C27.2867 92.0938 28.4846 91.9115 29.8127 91.7812L30.4768 91.7422C30.607 91.7682 30.7372 91.7812 30.8674 91.7812C30.9976 91.7552 31.1278 91.7422 31.2581 91.7422C32.4299 91.7422 33.1721 92.0938 33.4846 92.7969C33.719 92.9271 33.9273 93.0703 34.1096 93.2266C34.2919 93.3828 34.4612 93.5391 34.6174 93.6953C34.6956 93.7995 34.7737 93.8906 34.8518 93.9688C34.956 94.0469 35.0341 94.099 35.0862 94.125C35.5289 94.8021 35.6721 95.401 35.5159 95.9219C35.2815 96.2604 34.982 96.4557 34.6174 96.5078L34.1877 96.7422C33.9013 96.7161 33.6799 96.7031 33.5237 96.7031C33.3935 96.7031 33.2502 96.7031 33.094 96.7031C32.443 96.7031 31.6877 96.7422 30.8284 96.8203C29.969 96.8984 29.0836 97.0156 28.1721 97.1719C27.2867 97.3021 26.4273 97.4714 25.594 97.6797C24.7607 97.888 24.0315 98.1094 23.4065 98.3438L22.7034 98.6953C22.5211 98.9818 22.4169 99.2161 22.3909 99.3984C22.3648 99.5547 22.3388 99.7109 22.3127 99.8672C22.2867 99.9714 22.2607 100.076 22.2346 100.18C22.2346 100.284 22.2216 100.401 22.1956 100.531C21.7528 101.078 21.5315 101.729 21.5315 102.484C21.3492 102.797 21.232 103.031 21.1799 103.188C21.1278 103.318 21.1278 103.487 21.1799 103.695C21.6747 103.904 22.1435 103.982 22.5862 103.93C23.0289 103.878 23.4716 103.812 23.9143 103.734C24.5133 103.63 25.1252 103.539 25.7502 103.461C26.4013 103.383 27.0653 103.344 27.7424 103.344H28.9924L28.6799 103.656L28.8752 104.203C29.0315 104.281 29.1357 104.333 29.1877 104.359C29.2659 104.385 29.344 104.424 29.4221 104.477L29.6174 104.828C29.7216 104.88 29.8127 104.971 29.8909 105.102C29.995 105.232 30.0601 105.427 30.0862 105.688L28.4846 107.953L27.9377 108.109C27.495 108.083 27.1044 108.135 26.7659 108.266C26.5836 108.318 26.4013 108.37 26.219 108.422C26.0367 108.448 25.8414 108.461 25.6331 108.461C25.1122 108.565 24.6695 108.643 24.3049 108.695C23.9664 108.747 23.6148 108.799 23.2502 108.852C22.7815 108.904 22.3258 108.982 21.8831 109.086C21.4403 109.164 21.0237 109.281 20.6331 109.438C20.3726 109.438 20.1903 109.438 20.0862 109.438C19.8778 109.438 19.6565 109.477 19.4221 109.555C19.2138 109.607 19.0185 109.659 18.8362 109.711C18.706 109.815 18.6148 109.932 18.5627 110.062C18.5107 110.167 18.4586 110.284 18.4065 110.414C18.3023 110.779 18.1591 111.078 17.9768 111.312V111.898C17.7685 112.159 17.6383 112.367 17.5862 112.523C17.5601 112.654 17.5211 112.784 17.469 112.914C17.4169 112.992 17.3778 113.07 17.3518 113.148C17.3258 113.201 17.3127 113.266 17.3127 113.344C17.5211 113.734 17.5732 114.177 17.469 114.672ZM142.078 112.719C141.922 113.161 141.688 113.617 141.375 114.086C141.089 114.529 140.737 114.932 140.321 115.297C139.93 115.635 139.487 115.922 138.992 116.156C138.498 116.391 137.977 116.521 137.43 116.547C137.091 116.469 136.857 116.378 136.727 116.273C136.623 116.195 136.505 116.117 136.375 116.039C136.297 115.987 136.219 115.948 136.141 115.922C136.089 115.87 136.037 115.831 135.985 115.805L135.516 115.609L135.672 115.102C135.724 114.893 135.711 114.737 135.633 114.633C135.555 114.503 135.399 114.333 135.164 114.125C135.086 114.047 135.008 113.969 134.93 113.891C134.852 113.812 134.787 113.734 134.735 113.656L134.071 112.914L135.125 112.641C135.776 112.458 136.206 112.224 136.414 111.938C136.649 111.651 136.74 111.169 136.688 110.492C136.167 110.388 135.724 110.375 135.36 110.453C135.021 110.531 134.67 110.622 134.305 110.727C133.836 110.857 133.354 110.974 132.86 111.078C132.391 111.156 131.87 111.195 131.297 111.195C131.089 111.195 130.893 111.195 130.711 111.195C130.529 111.169 130.334 111.143 130.125 111.117L129.735 111.039C129.683 110.753 129.63 110.596 129.578 110.57C129.526 110.518 129.474 110.466 129.422 110.414C129.292 110.284 129.149 110.115 128.992 109.906C128.862 109.672 128.836 109.385 128.914 109.047C128.784 108.812 128.706 108.578 128.68 108.344C128.524 108.656 128.406 108.982 128.328 109.32L128.172 109.711L127.781 109.789C127.729 109.815 127.69 109.88 127.664 109.984C127.638 110.062 127.625 110.128 127.625 110.18L127.43 110.844C127.378 110.896 127.326 110.948 127.274 111C127.222 111.026 127.17 111.065 127.117 111.117C127.065 111.352 127 111.586 126.922 111.82C126.844 112.055 126.766 112.276 126.688 112.484C126.558 112.823 126.44 113.161 126.336 113.5C126.258 113.812 126.232 114.125 126.258 114.438L126.102 114.867C125.972 115.023 125.828 115.154 125.672 115.258C125.516 115.336 125.36 115.414 125.203 115.492C125.151 115.544 125.073 115.596 124.969 115.648C124.891 115.674 124.826 115.701 124.774 115.727L124.656 116.156L124.188 116.234C123.901 116.286 123.693 116.326 123.563 116.352C123.459 116.378 123.328 116.391 123.172 116.391L122.781 116.352C122.495 116.117 122.274 115.935 122.117 115.805C121.961 115.648 121.779 115.505 121.571 115.375C121.336 115.062 121.206 114.828 121.18 114.672C121.154 114.516 121.128 114.372 121.102 114.242C121.05 114.086 121.024 113.956 121.024 113.852C120.998 113.747 120.959 113.669 120.906 113.617L120.399 113.148L120.828 112.797L120.867 112.133C121.388 110.805 121.935 109.529 122.508 108.305C123.107 107.081 123.719 105.831 124.344 104.555C124.552 104.138 124.748 103.721 124.93 103.305C125.138 102.888 125.347 102.471 125.555 102.055C125.529 101.977 125.516 101.885 125.516 101.781C125.516 101.677 125.542 101.56 125.594 101.43C125.88 100.987 126.115 100.596 126.297 100.258C126.479 99.8932 126.662 99.5286 126.844 99.1641C127.052 98.7214 127.261 98.2917 127.469 97.875C127.703 97.4583 127.99 97.0286 128.328 96.5859L128.953 96.3125C129.031 96.2865 129.123 96.2604 129.227 96.2344C129.331 96.1823 129.448 96.1562 129.578 96.1562L130.164 96.2344C130.893 95.8958 131.531 95.4271 132.078 94.8281C132.625 94.2031 133.185 93.4609 133.758 92.6016L134.149 92.0547L134.656 92.3672C134.787 92.4453 134.969 92.5234 135.203 92.6016C135.438 92.6536 135.685 92.7188 135.946 92.7969C136.414 92.901 136.857 93.0182 137.274 93.1484C137.69 93.2786 138.029 93.474 138.289 93.7344C138.446 94.151 138.537 94.4635 138.563 94.6719C138.589 94.8802 138.628 95.0885 138.68 95.2969C138.758 95.7396 138.823 96.1823 138.875 96.625C138.953 97.0677 139.005 97.5625 139.031 98.1094C139.162 98.5521 139.266 98.9948 139.344 99.4375C139.448 99.8542 139.539 100.284 139.617 100.727C139.748 101.352 139.878 101.964 140.008 102.562C140.138 103.135 140.308 103.682 140.516 104.203C140.724 104.203 140.854 104.216 140.906 104.242C141.037 104.19 141.167 104.151 141.297 104.125C141.453 104.099 141.623 104.073 141.805 104.047L142.235 104.008L142.391 104.398C142.417 104.529 142.547 104.659 142.781 104.789C143.12 104.815 143.367 104.893 143.524 105.023C143.68 105.128 143.823 105.245 143.953 105.375C144.058 105.479 144.162 105.557 144.266 105.609L144.852 105.844L144.539 106.43C144.279 106.898 143.901 107.354 143.406 107.797C142.938 108.214 142.404 108.565 141.805 108.852C141.831 109.008 141.844 109.164 141.844 109.32C141.87 109.451 141.909 109.594 141.961 109.75C142.039 110.193 142.104 110.648 142.156 111.117C142.209 111.586 142.209 112.068 142.156 112.562L142.078 112.719ZM130.789 105.961C131.571 105.909 132.274 105.857 132.899 105.805C133.55 105.727 134.266 105.609 135.047 105.453C134.865 104.672 134.67 103.865 134.461 103.031C134.253 102.172 134.031 101.326 133.797 100.492L133.563 100.883C133.042 101.43 132.534 102.042 132.039 102.719C131.571 103.396 131.167 104.034 130.828 104.633C130.672 104.867 130.516 105.102 130.36 105.336C130.203 105.57 130.06 105.805 129.93 106.039C130.086 106.013 130.229 106 130.36 106C130.516 106 130.659 105.987 130.789 105.961Z" fill="#113F85"/>
<path d="M52.9768 104.281C52.9508 104.594 52.9768 104.893 53.0549 105.18C53.1331 105.466 53.2242 105.753 53.3284 106.039C53.4586 106.299 53.5758 106.573 53.6799 106.859C53.7841 107.146 53.8622 107.432 53.9143 107.719C53.9664 108.083 53.9664 108.487 53.9143 108.93C53.8622 109.346 53.7711 109.763 53.6409 110.18C53.5107 110.57 53.3414 110.935 53.1331 111.273C52.9247 111.586 52.6773 111.82 52.3909 111.977C52.0263 112.445 51.5836 112.81 51.0627 113.07C50.5419 113.331 50.0601 113.643 49.6174 114.008C49.331 114.19 49.0055 114.32 48.6409 114.398C48.3023 114.477 47.9508 114.555 47.5862 114.633C47.2997 114.789 46.9612 114.958 46.5706 115.141C46.1799 115.297 45.7763 115.453 45.3596 115.609C44.943 115.74 44.5263 115.844 44.1096 115.922C43.693 115.974 43.3284 115.987 43.0159 115.961C42.2346 116.247 41.4664 116.43 40.7112 116.508C39.982 116.612 39.1226 116.56 38.1331 116.352C37.1956 116.482 36.3232 116.443 35.5159 116.234C34.7346 116.026 34.0315 115.701 33.4065 115.258C32.8075 114.789 32.2737 114.242 31.8049 113.617C31.3622 112.966 30.9976 112.289 30.7112 111.586C30.5028 110.102 30.5549 108.76 30.8674 107.562C31.1799 106.339 31.6226 105.219 32.1956 104.203C32.7945 103.161 33.4716 102.211 34.2268 101.352C34.982 100.466 35.7112 99.6068 36.4143 98.7734C36.5706 98.8255 36.6877 98.8255 36.7659 98.7734C36.87 98.6953 36.9612 98.6042 37.0393 98.5C37.1174 98.3698 37.1956 98.2526 37.2737 98.1484C37.3778 98.0443 37.495 97.9792 37.6252 97.9531C37.8075 97.5625 38.068 97.276 38.4065 97.0938C38.7711 96.8854 39.0575 96.599 39.2659 96.2344C39.5002 96.1823 39.6956 96.1042 39.8518 96C40.0081 95.8958 40.1513 95.7786 40.2815 95.6484C40.4377 95.5182 40.594 95.401 40.7502 95.2969C40.9065 95.1667 41.0888 95.0755 41.2971 95.0234V94.5938C41.7659 94.3854 42.1044 94.151 42.3127 93.8906C42.5471 93.6042 42.8206 93.2656 43.1331 92.875C43.3674 92.849 43.5497 92.8359 43.6799 92.8359C43.8362 92.8359 44.0575 92.8099 44.344 92.7578C44.5523 92.3932 44.7346 92.1198 44.8909 91.9375C45.0732 91.7552 45.3336 91.5599 45.6721 91.3516C45.9846 91.5078 46.3232 91.612 46.6877 91.6641C47.0784 91.7161 47.4169 91.8854 47.7034 92.1719C47.7294 92.4323 47.8075 92.6406 47.9377 92.7969C48.068 92.9271 48.2112 93.0573 48.3674 93.1875C48.5237 93.2917 48.6669 93.4089 48.7971 93.5391C48.9534 93.6693 49.0575 93.8516 49.1096 94.0859C49.2138 94.112 49.2789 94.099 49.3049 94.0469C49.357 93.9948 49.4351 93.9818 49.5393 94.0078C49.6174 94.3724 49.7086 94.6198 49.8127 94.75C49.9169 94.8542 50.0211 95.0755 50.1252 95.4141C49.995 95.6745 49.8909 95.9479 49.8127 96.2344C49.7607 96.4948 49.6044 96.6901 49.344 96.8203C49.318 97.0026 49.37 97.1068 49.5002 97.1328C49.6305 97.1328 49.7086 97.1979 49.7346 97.3281C49.7607 97.5625 49.7216 97.7318 49.6174 97.8359C50.2424 98.8516 50.8023 99.9323 51.2971 101.078C51.7919 102.198 52.3518 103.266 52.9768 104.281ZM48.094 107.992C48.1982 107.706 48.3284 107.471 48.4846 107.289C48.6669 107.107 48.7711 106.833 48.7971 106.469C48.6669 106.26 48.5888 106.104 48.5627 106C48.5367 105.87 48.5237 105.674 48.5237 105.414C47.9508 104.607 47.456 103.747 47.0393 102.836C46.6226 101.898 46.1539 101.026 45.6331 100.219C45.581 100.323 45.4898 100.427 45.3596 100.531C45.2294 100.635 45.0862 100.609 44.9299 100.453C44.8778 100.661 44.7867 100.818 44.6565 100.922C44.5263 101 44.3831 101.039 44.2268 101.039C44.0706 101.013 43.9013 100.974 43.719 100.922C43.5627 100.844 43.4195 100.753 43.2893 100.648C42.5341 101.247 41.7789 101.833 41.0237 102.406C40.2685 102.979 39.5914 103.643 38.9924 104.398C38.8883 104.451 38.8232 104.477 38.7971 104.477C38.7711 104.451 38.693 104.464 38.5627 104.516C38.3544 105.01 38.094 105.466 37.7815 105.883C37.495 106.273 37.2086 106.677 36.9221 107.094C36.6357 107.51 36.3883 107.953 36.1799 108.422C35.9716 108.891 35.8544 109.438 35.8284 110.062C36.2711 110.427 36.7919 110.648 37.3909 110.727C37.9898 110.805 38.6018 110.818 39.2268 110.766C39.8778 110.714 40.5028 110.635 41.1018 110.531C41.7268 110.401 42.2997 110.336 42.8206 110.336C43.9143 110.076 44.8518 109.737 45.6331 109.32C46.4143 108.878 47.2346 108.435 48.094 107.992ZM74.6174 105.453C74.5914 105.583 74.5653 105.701 74.5393 105.805C74.5133 105.883 74.4872 105.961 74.4612 106.039C74.4351 106.117 74.4221 106.221 74.4221 106.352C74.4221 106.456 74.4221 106.599 74.4221 106.781C73.6409 108.161 72.6513 109.32 71.4534 110.258C70.2815 111.195 68.9794 112.029 67.5471 112.758C66.1409 113.461 64.6695 114.112 63.1331 114.711C61.5966 115.284 60.0992 115.909 58.6409 116.586C58.0159 116.43 57.5341 116.169 57.1956 115.805C56.8831 115.44 56.6357 115.023 56.4534 114.555C56.2971 114.06 56.1799 113.526 56.1018 112.953C56.0497 112.354 55.9976 111.742 55.9456 111.117C56.0237 110.831 56.1278 110.596 56.2581 110.414C56.4143 110.206 56.4924 109.919 56.4924 109.555C56.7008 108.878 56.9091 108.214 57.1174 107.562C57.3258 106.911 57.456 106.247 57.5081 105.57C57.5862 105.362 57.7294 105.219 57.9377 105.141C58.068 103.891 58.068 102.628 57.9377 101.352C57.8336 100.049 57.6252 98.8385 57.3127 97.7188C57.3388 97.4583 57.3648 97.276 57.3909 97.1719C57.443 97.0417 57.443 96.9505 57.3909 96.8984C57.3648 96.6901 57.4299 96.5859 57.5862 96.5859C57.7685 96.5859 57.9508 96.5859 58.1331 96.5859C58.1331 96.1953 58.0549 95.8047 57.8987 95.4141C57.7685 95.0234 57.6383 94.5807 57.5081 94.0859C57.6903 93.6953 57.8075 93.3177 57.8596 92.9531C57.9117 92.5625 58.0289 92.224 58.2112 91.9375C59.6174 92.3802 60.9586 92.9141 62.2346 93.5391C63.5367 94.1641 64.8127 94.6198 66.0627 94.9062C67.0002 95.5833 67.9638 96.2604 68.9534 96.9375C69.943 97.5885 70.8414 98.3177 71.6487 99.125C72.456 99.9062 73.1331 100.805 73.6799 101.82C74.2268 102.836 74.5393 104.047 74.6174 105.453ZM65.3596 107.602C65.9065 107.393 66.4403 107.172 66.9612 106.938C67.5081 106.703 68.0028 106.443 68.4456 106.156C68.9143 105.844 69.331 105.492 69.6956 105.102C70.0601 104.711 70.3596 104.242 70.594 103.695C70.4377 103.383 70.2294 103.109 69.969 102.875C69.7086 102.615 69.4482 102.38 69.1877 102.172C68.9273 101.938 68.6669 101.703 68.4065 101.469C68.1721 101.234 67.9768 100.948 67.8206 100.609C67.482 100.557 67.1825 100.466 66.9221 100.336C66.6617 100.18 66.4013 100.036 66.1409 99.9062C65.9065 99.75 65.6461 99.6068 65.3596 99.4766C65.0992 99.3464 64.7867 99.2682 64.4221 99.2422C63.8492 98.9557 63.3284 98.7474 62.8596 98.6172C62.4169 98.487 62.0784 98.3177 61.844 98.1094C61.6617 98.1094 61.5185 98.1484 61.4143 98.2266C61.6747 99.2161 61.87 100.154 62.0002 101.039C62.1305 101.898 62.1956 102.771 62.1956 103.656C62.2216 104.516 62.1825 105.401 62.0784 106.312C61.9742 107.224 61.831 108.214 61.6487 109.281C61.9091 109.255 62.1435 109.203 62.3518 109.125C62.5862 109.021 62.8075 108.917 63.0159 108.812C63.2502 108.708 63.4846 108.617 63.719 108.539C63.9794 108.435 64.2789 108.37 64.6174 108.344C64.6956 108.188 64.7997 108.057 64.9299 107.953C65.0862 107.849 65.2294 107.732 65.3596 107.602ZM83.5237 113.266C83.6539 114.047 83.6018 114.659 83.3674 115.102C83.1591 115.544 82.8466 115.87 82.4299 116.078C82.0393 116.312 81.5836 116.443 81.0627 116.469C80.5419 116.495 80.0471 116.469 79.5784 116.391C79.318 116.026 79.0836 115.57 78.8752 115.023C78.6669 114.477 78.4716 113.917 78.2893 113.344C78.107 112.745 77.9377 112.159 77.7815 111.586C77.6513 111.013 77.5341 110.505 77.4299 110.062C77.5601 109.75 77.6383 109.398 77.6643 109.008C77.7164 108.591 77.7424 108.174 77.7424 107.758C77.7685 107.341 77.7815 106.924 77.7815 106.508C77.8075 106.065 77.8466 105.648 77.8987 105.258C78.081 104.164 78.3414 103.122 78.6799 102.133C79.0445 101.143 79.331 100.115 79.5393 99.0469C79.5914 98.8125 79.5653 98.5911 79.4612 98.3828C79.3831 98.1745 79.37 97.9792 79.4221 97.7969C79.4482 97.6927 79.5263 97.6276 79.6565 97.6016C79.7867 97.5495 79.8648 97.4583 79.8909 97.3281C79.969 97.0417 79.982 96.8073 79.9299 96.625C79.9039 96.4427 79.956 96.2214 80.0862 95.9609C80.2164 95.7526 80.3726 95.4531 80.5549 95.0625C80.7633 94.6458 80.8414 94.2161 80.7893 93.7734C81.0237 93.6172 81.245 93.4349 81.4534 93.2266C81.6617 93.0182 81.87 92.8359 82.0784 92.6797C82.3127 92.4974 82.5601 92.3411 82.8206 92.2109C83.107 92.0807 83.4456 92.0156 83.8362 92.0156C84.0445 92.276 84.1747 92.5625 84.2268 92.875C84.3049 93.1875 84.37 93.5 84.4221 93.8125C84.5002 94.125 84.6044 94.4245 84.7346 94.7109C84.8648 94.9714 85.0862 95.1797 85.3987 95.3359C85.3987 95.5443 85.3987 95.8047 85.3987 96.1172C85.3987 96.4297 85.4117 96.7422 85.4377 97.0547C85.4638 97.3411 85.5159 97.6146 85.594 97.875C85.6982 98.1094 85.8544 98.2656 86.0627 98.3438C85.594 99.5938 85.1513 100.831 84.7346 102.055C84.344 103.279 84.0185 104.516 83.7581 105.766C83.4976 106.99 83.3284 108.227 83.2502 109.477C83.1982 110.727 83.2893 111.99 83.5237 113.266ZM88.6799 98.4219C88.8622 97.875 89.1487 97.4062 89.5393 97.0156C89.956 96.625 90.3987 96.2995 90.8674 96.0391C91.3622 95.7526 91.87 95.5182 92.3909 95.3359C92.9117 95.1536 93.4065 94.9974 93.8752 94.8672C94.9169 94.4245 96.0237 94.0078 97.1956 93.6172C98.3935 93.2005 99.6044 92.8359 100.828 92.5234C102.078 92.2109 103.354 92.0156 104.656 91.9375C105.959 91.8333 107.326 91.9896 108.758 92.4062C108.836 92.6667 108.953 92.9141 109.11 93.1484C109.266 93.3828 109.422 93.6172 109.578 93.8516C109.761 94.0859 109.917 94.3203 110.047 94.5547C110.177 94.763 110.255 94.9844 110.281 95.2188C110.542 95.4531 110.75 95.7135 110.906 96C111.063 96.2604 111.089 96.612 110.985 97.0547C110.724 97.263 110.464 97.4583 110.203 97.6406C109.969 97.7969 109.709 97.9401 109.422 98.0703C108.459 97.8359 107.482 97.7578 106.492 97.8359C105.503 97.9141 104.617 97.9792 103.836 98.0312C103.602 97.7969 103.315 97.6797 102.977 97.6797C102.664 97.6797 102.326 97.7318 101.961 97.8359C101.623 97.9401 101.271 98.0443 100.906 98.1484C100.568 98.2526 100.242 98.2786 99.9299 98.2266C99.6695 98.4349 99.344 98.5781 98.9534 98.6562C98.5888 98.7083 98.1851 98.7604 97.7424 98.8125C97.7164 98.9427 97.7424 99.0339 97.8206 99.0859C97.8987 99.112 97.9117 99.1901 97.8596 99.3203C98.0159 99.5026 98.2112 99.6328 98.4456 99.7109C98.706 99.7891 98.9664 99.8672 99.2268 99.9453C99.5133 100.023 99.7607 100.128 99.969 100.258C100.177 100.362 100.321 100.544 100.399 100.805C100.789 100.805 101.128 100.896 101.414 101.078C101.701 101.26 101.935 101.482 102.117 101.742C102.3 102.003 102.43 102.289 102.508 102.602C102.612 102.888 102.664 103.148 102.664 103.383C102.742 103.591 102.834 103.682 102.938 103.656C103.042 103.63 103.159 103.682 103.289 103.812C103.367 104.151 103.563 104.503 103.875 104.867C104.188 105.206 104.435 105.583 104.617 106C104.67 106.651 104.709 107.237 104.735 107.758C104.761 108.253 104.67 108.76 104.461 109.281C104.071 110.245 103.524 111.104 102.821 111.859C102.143 112.615 101.362 113.292 100.477 113.891C99.6174 114.464 98.693 114.958 97.7034 115.375C96.7138 115.792 95.7502 116.143 94.8127 116.43C94.7086 116.404 94.6044 116.404 94.5002 116.43C94.3961 116.456 94.37 116.391 94.4221 116.234C94.2138 116.417 93.9794 116.534 93.719 116.586C93.4846 116.638 93.2242 116.651 92.9377 116.625C92.6513 116.625 92.3518 116.612 92.0393 116.586C91.7528 116.56 91.4794 116.573 91.219 116.625C91.0367 116.443 90.8674 116.26 90.7112 116.078C90.581 115.922 90.4768 115.714 90.3987 115.453C90.2685 115.453 90.2034 115.388 90.2034 115.258C90.2294 115.128 90.1903 115.062 90.0862 115.062C90.2424 114.802 90.3075 114.659 90.2815 114.633C90.2815 114.581 90.2424 114.542 90.1643 114.516C90.1122 114.49 90.0601 114.464 90.0081 114.438C89.956 114.385 89.943 114.32 89.969 114.242C90.0732 114.034 90.1122 113.799 90.0862 113.539C90.0601 113.253 90.0341 112.966 90.0081 112.68C89.982 112.393 89.995 112.12 90.0471 111.859C90.1252 111.599 90.3206 111.391 90.6331 111.234C91.5185 111.339 92.3518 111.312 93.1331 111.156C93.9403 110.974 94.6956 110.727 95.3987 110.414C96.1018 110.102 96.7659 109.763 97.3909 109.398C98.0419 109.034 98.6799 108.708 99.3049 108.422C99.3831 108.188 99.4872 107.992 99.6174 107.836C99.7737 107.68 99.9299 107.536 100.086 107.406C100.242 107.276 100.386 107.133 100.516 106.977C100.646 106.82 100.737 106.625 100.789 106.391C100.815 106.208 100.763 106.104 100.633 106.078C100.529 106.026 100.477 105.922 100.477 105.766L100.047 105.648C99.5523 105.362 98.9924 105.128 98.3674 104.945C97.7424 104.737 97.2086 104.516 96.7659 104.281C96.4794 104.438 96.206 104.477 95.9456 104.398C95.7112 104.32 95.3987 104.242 95.0081 104.164C94.1226 104.112 93.2633 104.021 92.4299 103.891C91.6226 103.76 90.8414 103.526 90.0862 103.188C90.0341 103.057 89.969 102.94 89.8909 102.836C89.8127 102.732 89.6695 102.706 89.4612 102.758C89.3049 102.549 89.1487 102.354 88.9924 102.172C88.8362 101.964 88.693 101.742 88.5627 101.508C88.6148 101.195 88.6539 100.935 88.6799 100.727C88.706 100.492 88.6278 100.271 88.4456 100.062C88.5497 99.724 88.6278 99.4505 88.6799 99.2422C88.732 99.0339 88.732 98.7604 88.6799 98.4219ZM159.383 91.7812C160.477 91.9115 161.453 92.1328 162.313 92.4453C163.172 92.7578 163.901 93.1745 164.5 93.6953C164.917 94.3464 165.308 95.0495 165.672 95.8047C166.063 96.5599 166.349 97.3542 166.531 98.1875C166.74 98.9948 166.831 99.8281 166.805 100.688C166.805 101.547 166.623 102.419 166.258 103.305C165.503 104.242 164.578 105.01 163.485 105.609C162.417 106.182 161.258 106.651 160.008 107.016C158.758 107.38 157.456 107.693 156.102 107.953C154.774 108.214 153.472 108.474 152.196 108.734C152.222 109.333 152.222 109.971 152.196 110.648C152.196 111.299 152.13 111.964 152 112.641C151.896 113.292 151.727 113.93 151.492 114.555C151.258 115.18 150.946 115.753 150.555 116.273C150.112 116.273 149.656 116.326 149.188 116.43C148.719 116.56 148.302 116.664 147.938 116.742C147.755 116.638 147.586 116.534 147.43 116.43C147.3 116.352 147.104 116.299 146.844 116.273C146.896 116.013 146.831 115.753 146.649 115.492C146.466 115.206 146.284 114.919 146.102 114.633C145.92 114.346 145.789 114.073 145.711 113.812C145.659 113.552 145.789 113.305 146.102 113.07C145.92 112.888 145.828 112.654 145.828 112.367C146.011 112.055 146.167 111.625 146.297 111.078C146.453 110.531 146.571 109.997 146.649 109.477C146.753 108.93 146.779 108.435 146.727 107.992C146.675 107.549 146.414 107.224 145.946 107.016C145.972 106.964 146.024 106.938 146.102 106.938C146.18 106.938 146.258 106.924 146.336 106.898C146.128 106.742 145.998 106.521 145.946 106.234C145.92 105.948 145.828 105.701 145.672 105.492C145.724 105.362 145.763 105.245 145.789 105.141C145.815 105.036 145.906 104.997 146.063 105.023C145.985 104.555 145.985 104.112 146.063 103.695C146.167 103.279 146.31 102.888 146.492 102.523C146.675 102.133 146.896 101.755 147.156 101.391C147.417 101.026 147.664 100.661 147.899 100.297C148.081 100.271 148.185 100.297 148.211 100.375C148.263 100.453 148.354 100.44 148.485 100.336C148.823 100.076 149.058 99.8021 149.188 99.5156C149.318 99.2292 149.383 98.9036 149.383 98.5391C149.565 97.9922 149.787 97.4453 150.047 96.8984C150.308 96.3255 150.594 95.8047 150.906 95.3359C151.219 94.8672 151.558 94.4505 151.922 94.0859C152.313 93.7214 152.716 93.4479 153.133 93.2656C153.446 93.0052 153.836 92.7708 154.305 92.5625C154.774 92.3281 155.281 92.1589 155.828 92.0547C156.375 91.9245 156.922 91.8594 157.469 91.8594C158.042 91.8333 158.563 91.8854 159.031 92.0156C159.162 92.0677 159.227 92.0417 159.227 91.9375C159.253 91.8333 159.305 91.7812 159.383 91.7812ZM157.781 101.117C158.433 100.831 159.123 100.609 159.852 100.453C160.607 100.271 161.232 99.9453 161.727 99.4766C161.414 99.1901 160.959 98.9427 160.36 98.7344C159.761 98.5 159.11 98.3568 158.406 98.3047C157.703 98.2526 156.987 98.3177 156.258 98.5C155.555 98.6562 154.943 98.9688 154.422 99.4375C154.266 99.9062 154.136 100.284 154.031 100.57C153.927 100.831 153.784 101.156 153.602 101.547C153.654 101.677 153.732 101.781 153.836 101.859C153.966 101.911 154.058 102.003 154.11 102.133C154.709 101.82 155.308 101.651 155.906 101.625C156.531 101.573 157.156 101.404 157.781 101.117ZM180.36 91.7812C181.453 91.9115 182.43 92.1328 183.289 92.4453C184.149 92.7578 184.878 93.1745 185.477 93.6953C185.893 94.3464 186.284 95.0495 186.649 95.8047C187.039 96.5599 187.326 97.3542 187.508 98.1875C187.716 98.9948 187.808 99.8281 187.781 100.688C187.781 101.547 187.599 102.419 187.235 103.305C186.479 104.242 185.555 105.01 184.461 105.609C183.393 106.182 182.235 106.651 180.985 107.016C179.735 107.38 178.433 107.693 177.078 107.953C175.75 108.214 174.448 108.474 173.172 108.734C173.198 109.333 173.198 109.971 173.172 110.648C173.172 111.299 173.107 111.964 172.977 112.641C172.873 113.292 172.703 113.93 172.469 114.555C172.235 115.18 171.922 115.753 171.531 116.273C171.089 116.273 170.633 116.326 170.164 116.43C169.696 116.56 169.279 116.664 168.914 116.742C168.732 116.638 168.563 116.534 168.406 116.43C168.276 116.352 168.081 116.299 167.821 116.273C167.873 116.013 167.808 115.753 167.625 115.492C167.443 115.206 167.261 114.919 167.078 114.633C166.896 114.346 166.766 114.073 166.688 113.812C166.636 113.552 166.766 113.305 167.078 113.07C166.896 112.888 166.805 112.654 166.805 112.367C166.987 112.055 167.143 111.625 167.274 111.078C167.43 110.531 167.547 109.997 167.625 109.477C167.729 108.93 167.755 108.435 167.703 107.992C167.651 107.549 167.391 107.224 166.922 107.016C166.948 106.964 167 106.938 167.078 106.938C167.156 106.938 167.235 106.924 167.313 106.898C167.104 106.742 166.974 106.521 166.922 106.234C166.896 105.948 166.805 105.701 166.649 105.492C166.701 105.362 166.74 105.245 166.766 105.141C166.792 105.036 166.883 104.997 167.039 105.023C166.961 104.555 166.961 104.112 167.039 103.695C167.143 103.279 167.287 102.888 167.469 102.523C167.651 102.133 167.873 101.755 168.133 101.391C168.393 101.026 168.641 100.661 168.875 100.297C169.058 100.271 169.162 100.297 169.188 100.375C169.24 100.453 169.331 100.44 169.461 100.336C169.8 100.076 170.034 99.8021 170.164 99.5156C170.295 99.2292 170.36 98.9036 170.36 98.5391C170.542 97.9922 170.763 97.4453 171.024 96.8984C171.284 96.3255 171.571 95.8047 171.883 95.3359C172.196 94.8672 172.534 94.4505 172.899 94.0859C173.289 93.7214 173.693 93.4479 174.11 93.2656C174.422 93.0052 174.813 92.7708 175.281 92.5625C175.75 92.3281 176.258 92.1589 176.805 92.0547C177.352 91.9245 177.899 91.8594 178.446 91.8594C179.018 91.8333 179.539 91.8854 180.008 92.0156C180.138 92.0677 180.203 92.0417 180.203 91.9375C180.229 91.8333 180.281 91.7812 180.36 91.7812ZM178.758 101.117C179.409 100.831 180.099 100.609 180.828 100.453C181.584 100.271 182.209 99.9453 182.703 99.4766C182.391 99.1901 181.935 98.9427 181.336 98.7344C180.737 98.5 180.086 98.3568 179.383 98.3047C178.68 98.2526 177.964 98.3177 177.235 98.5C176.531 98.6562 175.92 98.9688 175.399 99.4375C175.242 99.9062 175.112 100.284 175.008 100.57C174.904 100.831 174.761 101.156 174.578 101.547C174.63 101.677 174.709 101.781 174.813 101.859C174.943 101.911 175.034 102.003 175.086 102.133C175.685 101.82 176.284 101.651 176.883 101.625C177.508 101.573 178.133 101.404 178.758 101.117Z" fill="#6FE5FF"/>
</svg>
